# xmcd
#
# Track frame offsets: 
#        150
#        11165
#        23472
#        35055
#        47892
#        62795
#        71467
#        82860
#        92925
#        109492
#        120935
#        132602
#
# Disc length: 1946 seconds
#
# Revision: 1
# Processed by: cddbd v1.5.2PL0 Copyright (c) Steve Scherf et al.
# Submitted via: ExactAudioCopy v0.95b4
#
DISCID=a107980c
DTITLE=Blue Cats - Re-Discovered Masters 1978-1984
DYEAR=1994
DGENRE=Rockabilly
TTITLE0=I Don't Care If The Sun Don't Shine
TTITLE1=Jumps, Giggles and Shouts
TTITLE2=Mystery Train
TTITLE3=I'll Never Let You Go
TTITLE4=Saint's Rock and Roll
TTITLE5=Gotta Git-A Goin
TTITLE6=Baby's Number One
TTITLE7=I've Got No Time For You
TTITLE8=Gotta Go
TTITLE9=Left Out
TTITLE10=El-Dorado
TTITLE11=The Masters Call
EXTD=
EXTT0=
EXTT1=
EXTT2=
EXTT3=
EXTT4=
EXTT5=
EXTT6=
EXTT7=
EXTT8=
EXTT9=
EXTT10=
EXTT11=
PLAYORDER=
